<mxfile host="app.diagrams.net" agent="Mozilla/5.0 (Windows NT 10.0; Win64; x64) AppleWebKit/537.36 (KHTML, like Gecko) Chrome/127.0.0.0 Safari/537.36 Edg/127.0.0.0" version="24.7.7">
  <diagram id="C5RBs43oDa-KdzZeNtuy" name="Page-1">
    <mxGraphModel dx="873" dy="559" grid="1" gridSize="10" guides="1" tooltips="1" connect="1" arrows="1" fold="1" page="1" pageScale="1" pageWidth="827" pageHeight="1169" math="0" shadow="0">
      <root>
        <mxCell id="WIyWlLk6GJQsqaUBKTNV-0" />
        <mxCell id="WIyWlLk6GJQsqaUBKTNV-1" parent="WIyWlLk6GJQsqaUBKTNV-0" />
        <mxCell id="VZMe0VUoL9Vbd5zhVELQ-5" value="" style="edgeStyle=orthogonalEdgeStyle;rounded=0;orthogonalLoop=1;jettySize=auto;html=1;" edge="1" parent="WIyWlLk6GJQsqaUBKTNV-1" source="WIyWlLk6GJQsqaUBKTNV-3" target="VZMe0VUoL9Vbd5zhVELQ-4">
          <mxGeometry relative="1" as="geometry" />
        </mxCell>
        <mxCell id="WIyWlLk6GJQsqaUBKTNV-3" value="CS INPUT SO DI MENU SO" style="rounded=1;whiteSpace=wrap;html=1;fontSize=12;glass=0;strokeWidth=1;shadow=0;" parent="WIyWlLk6GJQsqaUBKTNV-1" vertex="1">
          <mxGeometry y="40" width="120" height="40" as="geometry" />
        </mxCell>
        <mxCell id="VZMe0VUoL9Vbd5zhVELQ-9" style="edgeStyle=orthogonalEdgeStyle;rounded=0;orthogonalLoop=1;jettySize=auto;html=1;entryX=0.5;entryY=1;entryDx=0;entryDy=0;" edge="1" parent="WIyWlLk6GJQsqaUBKTNV-1" source="VZMe0VUoL9Vbd5zhVELQ-3" target="VZMe0VUoL9Vbd5zhVELQ-7">
          <mxGeometry relative="1" as="geometry">
            <mxPoint x="220.0000000000001" y="220" as="targetPoint" />
          </mxGeometry>
        </mxCell>
        <mxCell id="VZMe0VUoL9Vbd5zhVELQ-3" value="ADMIN BARANG INPUT BAHAN DITERIMA" style="rounded=1;whiteSpace=wrap;html=1;" vertex="1" parent="WIyWlLk6GJQsqaUBKTNV-1">
          <mxGeometry y="280" width="120" height="60" as="geometry" />
        </mxCell>
        <mxCell id="VZMe0VUoL9Vbd5zhVELQ-6" value="" style="edgeStyle=orthogonalEdgeStyle;rounded=0;orthogonalLoop=1;jettySize=auto;html=1;" edge="1" parent="WIyWlLk6GJQsqaUBKTNV-1" source="VZMe0VUoL9Vbd5zhVELQ-4" target="VZMe0VUoL9Vbd5zhVELQ-3">
          <mxGeometry relative="1" as="geometry" />
        </mxCell>
        <mxCell id="VZMe0VUoL9Vbd5zhVELQ-8" value="" style="edgeStyle=orthogonalEdgeStyle;rounded=0;orthogonalLoop=1;jettySize=auto;html=1;" edge="1" parent="WIyWlLk6GJQsqaUBKTNV-1" source="VZMe0VUoL9Vbd5zhVELQ-4" target="VZMe0VUoL9Vbd5zhVELQ-7">
          <mxGeometry relative="1" as="geometry" />
        </mxCell>
        <mxCell id="VZMe0VUoL9Vbd5zhVELQ-4" value="DESIGN AMBIL KERJAAN DI MENU DESIGNER" style="rhombus;whiteSpace=wrap;html=1;" vertex="1" parent="WIyWlLk6GJQsqaUBKTNV-1">
          <mxGeometry y="120" width="120" height="120" as="geometry" />
        </mxCell>
        <mxCell id="VZMe0VUoL9Vbd5zhVELQ-16" style="edgeStyle=orthogonalEdgeStyle;rounded=0;orthogonalLoop=1;jettySize=auto;html=1;entryX=0;entryY=0.5;entryDx=0;entryDy=0;" edge="1" parent="WIyWlLk6GJQsqaUBKTNV-1" source="VZMe0VUoL9Vbd5zhVELQ-7" target="VZMe0VUoL9Vbd5zhVELQ-14">
          <mxGeometry relative="1" as="geometry" />
        </mxCell>
        <mxCell id="VZMe0VUoL9Vbd5zhVELQ-19" style="edgeStyle=orthogonalEdgeStyle;rounded=0;orthogonalLoop=1;jettySize=auto;html=1;" edge="1" parent="WIyWlLk6GJQsqaUBKTNV-1" source="VZMe0VUoL9Vbd5zhVELQ-7" target="VZMe0VUoL9Vbd5zhVELQ-17">
          <mxGeometry relative="1" as="geometry" />
        </mxCell>
        <mxCell id="VZMe0VUoL9Vbd5zhVELQ-20" style="edgeStyle=orthogonalEdgeStyle;rounded=0;orthogonalLoop=1;jettySize=auto;html=1;entryX=0;entryY=0.5;entryDx=0;entryDy=0;" edge="1" parent="WIyWlLk6GJQsqaUBKTNV-1" source="VZMe0VUoL9Vbd5zhVELQ-7" target="VZMe0VUoL9Vbd5zhVELQ-18">
          <mxGeometry relative="1" as="geometry" />
        </mxCell>
        <mxCell id="VZMe0VUoL9Vbd5zhVELQ-7" value="CS INPUT SPK" style="rounded=1;whiteSpace=wrap;html=1;" vertex="1" parent="WIyWlLk6GJQsqaUBKTNV-1">
          <mxGeometry x="160" y="150" width="120" height="60" as="geometry" />
        </mxCell>
        <mxCell id="VZMe0VUoL9Vbd5zhVELQ-26" style="edgeStyle=orthogonalEdgeStyle;rounded=0;orthogonalLoop=1;jettySize=auto;html=1;entryX=0;entryY=0.25;entryDx=0;entryDy=0;" edge="1" parent="WIyWlLk6GJQsqaUBKTNV-1" source="VZMe0VUoL9Vbd5zhVELQ-14" target="VZMe0VUoL9Vbd5zhVELQ-21">
          <mxGeometry relative="1" as="geometry" />
        </mxCell>
        <mxCell id="VZMe0VUoL9Vbd5zhVELQ-14" value="APPROVAL DP OLEH CS" style="rhombus;whiteSpace=wrap;html=1;" vertex="1" parent="WIyWlLk6GJQsqaUBKTNV-1">
          <mxGeometry x="360" width="120" height="120" as="geometry" />
        </mxCell>
        <mxCell id="VZMe0VUoL9Vbd5zhVELQ-25" style="edgeStyle=orthogonalEdgeStyle;rounded=0;orthogonalLoop=1;jettySize=auto;html=1;exitX=1;exitY=0.5;exitDx=0;exitDy=0;entryX=0;entryY=0.5;entryDx=0;entryDy=0;" edge="1" parent="WIyWlLk6GJQsqaUBKTNV-1" source="VZMe0VUoL9Vbd5zhVELQ-17" target="VZMe0VUoL9Vbd5zhVELQ-21">
          <mxGeometry relative="1" as="geometry" />
        </mxCell>
        <mxCell id="VZMe0VUoL9Vbd5zhVELQ-17" value="APPROVAL&amp;nbsp;&lt;div&gt;OLEH MANAGER&lt;/div&gt;" style="rhombus;whiteSpace=wrap;html=1;" vertex="1" parent="WIyWlLk6GJQsqaUBKTNV-1">
          <mxGeometry x="360" y="120" width="120" height="120" as="geometry" />
        </mxCell>
        <mxCell id="VZMe0VUoL9Vbd5zhVELQ-27" style="edgeStyle=orthogonalEdgeStyle;rounded=0;orthogonalLoop=1;jettySize=auto;html=1;entryX=0;entryY=0.75;entryDx=0;entryDy=0;" edge="1" parent="WIyWlLk6GJQsqaUBKTNV-1" source="VZMe0VUoL9Vbd5zhVELQ-18" target="VZMe0VUoL9Vbd5zhVELQ-21">
          <mxGeometry relative="1" as="geometry" />
        </mxCell>
        <mxCell id="VZMe0VUoL9Vbd5zhVELQ-18" value="APPROVAL&amp;nbsp;&lt;div&gt;OLEH OEPRASIONAL&lt;/div&gt;" style="rhombus;whiteSpace=wrap;html=1;" vertex="1" parent="WIyWlLk6GJQsqaUBKTNV-1">
          <mxGeometry x="360" y="240" width="120" height="120" as="geometry" />
        </mxCell>
        <mxCell id="VZMe0VUoL9Vbd5zhVELQ-29" value="" style="edgeStyle=orthogonalEdgeStyle;rounded=0;orthogonalLoop=1;jettySize=auto;html=1;" edge="1" parent="WIyWlLk6GJQsqaUBKTNV-1" source="VZMe0VUoL9Vbd5zhVELQ-21" target="VZMe0VUoL9Vbd5zhVELQ-28">
          <mxGeometry relative="1" as="geometry" />
        </mxCell>
        <mxCell id="VZMe0VUoL9Vbd5zhVELQ-21" value="PRODUKSI" style="rounded=1;whiteSpace=wrap;html=1;" vertex="1" parent="WIyWlLk6GJQsqaUBKTNV-1">
          <mxGeometry x="560" y="45" width="120" height="60" as="geometry" />
        </mxCell>
        <mxCell id="VZMe0VUoL9Vbd5zhVELQ-31" value="" style="edgeStyle=orthogonalEdgeStyle;rounded=0;orthogonalLoop=1;jettySize=auto;html=1;" edge="1" parent="WIyWlLk6GJQsqaUBKTNV-1" source="VZMe0VUoL9Vbd5zhVELQ-28" target="VZMe0VUoL9Vbd5zhVELQ-30">
          <mxGeometry relative="1" as="geometry" />
        </mxCell>
        <mxCell id="VZMe0VUoL9Vbd5zhVELQ-28" value="VERIFIKASI QTY &amp;amp; PAYMENT OLEH FINANCE" style="rounded=1;whiteSpace=wrap;html=1;" vertex="1" parent="WIyWlLk6GJQsqaUBKTNV-1">
          <mxGeometry x="560" y="150" width="120" height="60" as="geometry" />
        </mxCell>
        <mxCell id="VZMe0VUoL9Vbd5zhVELQ-33" value="" style="edgeStyle=orthogonalEdgeStyle;rounded=0;orthogonalLoop=1;jettySize=auto;html=1;" edge="1" parent="WIyWlLk6GJQsqaUBKTNV-1" source="VZMe0VUoL9Vbd5zhVELQ-30" target="VZMe0VUoL9Vbd5zhVELQ-32">
          <mxGeometry relative="1" as="geometry" />
        </mxCell>
        <mxCell id="VZMe0VUoL9Vbd5zhVELQ-30" value="APPROVAL PENYERAHAN OLEH FINANCE" style="rounded=1;whiteSpace=wrap;html=1;" vertex="1" parent="WIyWlLk6GJQsqaUBKTNV-1">
          <mxGeometry x="560" y="270" width="120" height="60" as="geometry" />
        </mxCell>
        <mxCell id="VZMe0VUoL9Vbd5zhVELQ-32" value="PENYERAHAN BARANG OLEH ADMIN PENYERAHAN" style="rounded=0;whiteSpace=wrap;html=1;" vertex="1" parent="WIyWlLk6GJQsqaUBKTNV-1">
          <mxGeometry x="720" y="265" width="120" height="70" as="geometry" />
        </mxCell>
      </root>
    </mxGraphModel>
  </diagram>
</mxfile>
